<svg xmlns="http://www.w3.org/2000/svg" viewBox="0 0 416 86"><title>logo</title><path d="M20.21,38.8V33.15H59.72V50.09H54.07V38.8Zm5.64-11.29V21.87H54.07v5.64ZM31.5,67V61.37H42.78V67ZM42.78,55.73h5.65v5.64H42.78Zm5.65-5.64h5.64v5.64H48.43Z"/><path d="M76.65,44.44V33.15h5.64V44.44ZM82.29,67V61.37H93.58V67Zm5.65-22.58V33.15h5.64V44.44Zm5.64,11.29h5.64v5.64H93.58Zm5.64-11.29h5.65V55.73H99.22Zm5.65-11.29h5.64V44.44h-5.64Z"/><path d="M127.44,33.15V27.51h16.94V21.87H150v5.64H167v5.64H150V44.44H167v5.65H155.66V67H150V50.09H127.44V44.44h16.94V33.15Z"/><path d="M183.88,44.44V38.8h33.87v5.64Z"/><path d="M234.68,33.15V27.51h16.93V21.87h5.65v5.64h16.93v5.64H257.26V67H246V61.37h5.64V33.15Zm0,22.58V44.44h5.64V55.73Zm33.86,0V44.44h5.65V55.73Zm11.29-39.58V27.44h-5.64V16.15Zm5.65,11.29V16.15h5.64V27.44Z"/><path d="M308.05,44.44V38.8h33.87v5.64Z"/><path d="M358.85,67V61.37h5.64V67Zm5.64-16.93h5.65V61.37h-5.65Zm5.65-28.22h5.64V50.09h-5.64ZM381.42,67V21.87h5.65v39.5h5.64V67Zm11.29-11.29h5.65v5.64h-5.65Zm5.65-5.64H404v5.64h-5.64Z"/></svg>